<mxfile host="Electron" agent="Mozilla/5.0 (Windows NT 10.0; Win64; x64) AppleWebKit/537.36 (KHTML, like Gecko) draw.io/27.0.9 Chrome/134.0.6998.205 Electron/35.4.0 Safari/537.36" version="27.0.9">
  <diagram id="C5RBs43oDa-KdzZeNtuy" name="Page-1">
    <mxGraphModel dx="2250" dy="2063" grid="1" gridSize="10" guides="1" tooltips="1" connect="1" arrows="1" fold="1" page="1" pageScale="1" pageWidth="827" pageHeight="1169" math="0" shadow="0">
      <root>
        <mxCell id="WIyWlLk6GJQsqaUBKTNV-0" />
        <mxCell id="Yqo-nyDlKVrpuinywIIH-36" value="bg" style="locked=1;" parent="WIyWlLk6GJQsqaUBKTNV-0" />
        <mxCell id="Yqo-nyDlKVrpuinywIIH-35" value="" style="rounded=0;whiteSpace=wrap;html=1;fillColor=#FFFFFF;" vertex="1" parent="Yqo-nyDlKVrpuinywIIH-36">
          <mxGeometry x="-50" y="-100" width="990" height="1290" as="geometry" />
        </mxCell>
        <mxCell id="Yqo-nyDlKVrpuinywIIH-37" value="&lt;h1&gt;&lt;font style=&quot;color: rgb(230, 230, 230); font-size: 43px;&quot; face=&quot;Times New Roman&quot;&gt;@Sunil_Sharma&lt;/font&gt;&lt;/h1&gt;" style="text;html=1;align=center;verticalAlign=middle;whiteSpace=wrap;rounded=0;" vertex="1" parent="Yqo-nyDlKVrpuinywIIH-36">
          <mxGeometry x="290" y="-70" width="310" height="90" as="geometry" />
        </mxCell>
        <mxCell id="Yqo-nyDlKVrpuinywIIH-38" value="&lt;h1&gt;&lt;font style=&quot;color: rgb(230, 230, 230); font-size: 22px;&quot; face=&quot;Times New Roman&quot;&gt;@Sunil_Sharma&lt;/font&gt;&lt;/h1&gt;" style="text;html=1;align=center;verticalAlign=middle;whiteSpace=wrap;rounded=0;" vertex="1" parent="Yqo-nyDlKVrpuinywIIH-36">
          <mxGeometry x="270" y="780" width="310" height="90" as="geometry" />
        </mxCell>
        <mxCell id="WIyWlLk6GJQsqaUBKTNV-1" parent="WIyWlLk6GJQsqaUBKTNV-0" />
        <mxCell id="Yqo-nyDlKVrpuinywIIH-28" value="" style="verticalLabelPosition=bottom;verticalAlign=top;html=1;shape=mxgraph.basic.frame;dx=20;whiteSpace=wrap;fillColor=#FFD966;gradientColor=#ffa500;strokeColor=#d79b00;" vertex="1" parent="WIyWlLk6GJQsqaUBKTNV-1">
          <mxGeometry x="-50" y="-110" width="990" height="1310" as="geometry" />
        </mxCell>
        <mxCell id="Yqo-nyDlKVrpuinywIIH-30" value="FRONT" parent="WIyWlLk6GJQsqaUBKTNV-0" />
        <mxCell id="Yqo-nyDlKVrpuinywIIH-6" style="edgeStyle=orthogonalEdgeStyle;rounded=0;orthogonalLoop=1;jettySize=auto;html=1;shape=flexArrow;fillColor=#f8cecc;gradientColor=#ea6b66;strokeColor=#b85450;" edge="1" parent="Yqo-nyDlKVrpuinywIIH-30" source="Yqo-nyDlKVrpuinywIIH-0" target="Yqo-nyDlKVrpuinywIIH-2">
          <mxGeometry relative="1" as="geometry" />
        </mxCell>
        <mxCell id="Yqo-nyDlKVrpuinywIIH-0" value="&lt;h3&gt;&lt;font style=&quot;color: rgb(255, 181, 112);&quot;&gt;&lt;font&gt;⚙️&lt;/font&gt;&lt;font&gt;Preprocessing Pipeline&lt;/font&gt;&lt;/font&gt;&lt;/h3&gt;&lt;div style=&quot;text-align: left;&quot;&gt;&lt;font&gt;&lt;font style=&quot;&quot;&gt;&lt;div style=&quot;text-align: center;&quot;&gt;&lt;div style=&quot;text-align: left;&quot;&gt;&lt;br&gt;&lt;/div&gt;&lt;div style=&quot;text-align: left;&quot;&gt;&lt;br&gt;&lt;/div&gt;&lt;div style=&quot;text-align: left;&quot;&gt;&lt;br&gt;&lt;/div&gt;&lt;div style=&quot;text-align: left;&quot;&gt;&lt;br&gt;&lt;/div&gt;&lt;div style=&quot;text-align: left;&quot;&gt;&lt;br&gt;&lt;/div&gt;&lt;div style=&quot;text-align: left;&quot;&gt;&lt;br&gt;&lt;/div&gt;&lt;/div&gt;&lt;/font&gt;&lt;/font&gt;&lt;/div&gt;" style="rounded=1;whiteSpace=wrap;html=1;strokeColor=#1A1A1A;fillColor=#1A1A1A;" vertex="1" parent="Yqo-nyDlKVrpuinywIIH-30">
          <mxGeometry x="330" y="30" width="240" height="150" as="geometry" />
        </mxCell>
        <mxCell id="Yqo-nyDlKVrpuinywIIH-1" value="&lt;div style=&quot;text-align: left; line-height: 160%;&quot;&gt;&lt;div&gt;&lt;font face=&quot;Verdana&quot; style=&quot;color: rgb(255, 255, 255); font-size: 10px; line-height: 160%;&quot;&gt;✔️ Images resized to &lt;b&gt;224×224&lt;/b&gt;&amp;nbsp;&lt;/font&gt;&lt;/div&gt;&lt;div&gt;&lt;font face=&quot;Verdana&quot; style=&quot;color: rgb(255, 255, 255); font-size: 10px; line-height: 160%;&quot;&gt;✔️ Rescaled pixel values to &lt;b&gt;0–1&lt;/b&gt;&amp;nbsp;&amp;nbsp;&lt;/font&gt;&lt;/div&gt;&lt;div&gt;&lt;font face=&quot;Verdana&quot; style=&quot;color: rgb(255, 255, 255); font-size: 10px; line-height: 160%;&quot;&gt;✔️ Applied EfficientNetV2B2&amp;nbsp;&amp;nbsp;&lt;/font&gt;&lt;/div&gt;&lt;div&gt;&lt;font face=&quot;Verdana&quot; style=&quot;color: rgb(255, 255, 255); font-size: 10px; line-height: 160%;&quot;&gt;✔️ Triggered &lt;b&gt;initial training phase&lt;/b&gt;&lt;/font&gt;&lt;/div&gt;&lt;/div&gt;" style="text;html=1;align=center;verticalAlign=middle;whiteSpace=wrap;rounded=0;" vertex="1" parent="Yqo-nyDlKVrpuinywIIH-30">
          <mxGeometry x="295" y="70" width="310" height="100" as="geometry" />
        </mxCell>
        <mxCell id="Yqo-nyDlKVrpuinywIIH-10" style="edgeStyle=orthogonalEdgeStyle;rounded=0;orthogonalLoop=1;jettySize=auto;html=1;shape=flexArrow;fillColor=#f8cecc;gradientColor=#ea6b66;strokeColor=#b85450;" edge="1" parent="Yqo-nyDlKVrpuinywIIH-30" source="Yqo-nyDlKVrpuinywIIH-2" target="Yqo-nyDlKVrpuinywIIH-8">
          <mxGeometry relative="1" as="geometry" />
        </mxCell>
        <mxCell id="Yqo-nyDlKVrpuinywIIH-2" value="&lt;h3&gt;&lt;font color=&quot;#ffb570&quot;&gt;&lt;span style=&quot;font-size: 14.04px;&quot;&gt;&lt;br&gt;&lt;/span&gt;&lt;/font&gt;&lt;/h3&gt;&lt;h3&gt;&lt;font color=&quot;#ffb570&quot;&gt;&lt;span style=&quot;font-size: 14.04px;&quot;&gt;🧊 Base Model: EfficientNetV2B2&lt;/span&gt;&lt;/font&gt;&lt;/h3&gt;&lt;div style=&quot;text-align: left;&quot;&gt;&lt;font&gt;&lt;font style=&quot;&quot;&gt;&lt;div style=&quot;text-align: center;&quot;&gt;&lt;h3 style=&quot;text-align: left;&quot;&gt;&lt;br&gt;&lt;br&gt;&lt;br&gt;&lt;br&gt;&lt;br&gt;&lt;/h3&gt;&lt;div style=&quot;text-align: left;&quot;&gt;&lt;br&gt;&lt;/div&gt;&lt;/div&gt;&lt;/font&gt;&lt;/font&gt;&lt;/div&gt;" style="rounded=1;whiteSpace=wrap;html=1;strokeColor=#1A1A1A;fillColor=#1A1A1A;" vertex="1" parent="Yqo-nyDlKVrpuinywIIH-30">
          <mxGeometry x="320" y="260" width="260" height="150" as="geometry" />
        </mxCell>
        <mxCell id="Yqo-nyDlKVrpuinywIIH-3" value="&lt;div style=&quot;text-align: left; line-height: 160%;&quot;&gt;&lt;div&gt;&lt;font face=&quot;Verdana&quot; color=&quot;#ffffff&quot;&gt;&lt;span style=&quot;font-size: 10px;&quot;&gt;&lt;br&gt;&lt;/span&gt;&lt;/font&gt;&lt;/div&gt;&lt;div&gt;&lt;font face=&quot;Verdana&quot;&gt;&lt;span style=&quot;font-size: 10px; line-height: 160%;&quot;&gt;&lt;font color=&quot;#ffffff&quot;&gt;✔️ Imported with &lt;/font&gt;&lt;font style=&quot;color: rgb(255, 51, 51);&quot;&gt;include_top=False&lt;/font&gt;&lt;/span&gt;&lt;/font&gt;&lt;/div&gt;&lt;div&gt;&lt;font face=&quot;Verdana&quot; color=&quot;#ffffff&quot;&gt;&lt;span style=&quot;font-size: 10px; line-height: 160%;&quot;&gt;✔️ Pretrained weights loaded from &lt;b&gt;ImageNet&lt;/b&gt;&lt;/span&gt;&lt;/font&gt;&lt;/div&gt;&lt;div&gt;&lt;font face=&quot;Verdana&quot; color=&quot;#ffffff&quot;&gt;&lt;span style=&quot;font-size: 10px; line-height: 160%;&quot;&gt;✔️ Base layers&lt;b&gt; frozen &lt;/b&gt;during initial training&amp;nbsp;&lt;/span&gt;&lt;/font&gt;&lt;/div&gt;&lt;div&gt;&lt;font face=&quot;Verdana&quot; color=&quot;#ffffff&quot;&gt;&lt;span style=&quot;font-size: 10px; line-height: 160%;&quot;&gt;&amp;nbsp; &amp;nbsp; &amp;nbsp;phase&lt;/span&gt;&lt;/font&gt;&lt;/div&gt;&lt;/div&gt;" style="text;html=1;align=center;verticalAlign=middle;whiteSpace=wrap;rounded=0;" vertex="1" parent="Yqo-nyDlKVrpuinywIIH-30">
          <mxGeometry x="320" y="290" width="260" height="110" as="geometry" />
        </mxCell>
        <mxCell id="Yqo-nyDlKVrpuinywIIH-16" style="edgeStyle=orthogonalEdgeStyle;rounded=0;orthogonalLoop=1;jettySize=auto;html=1;shape=flexArrow;fillColor=#f8cecc;gradientColor=#ea6b66;strokeColor=#b85450;" edge="1" parent="Yqo-nyDlKVrpuinywIIH-30" source="Yqo-nyDlKVrpuinywIIH-8">
          <mxGeometry relative="1" as="geometry">
            <mxPoint x="710" y="640" as="targetPoint" />
          </mxGeometry>
        </mxCell>
        <mxCell id="Yqo-nyDlKVrpuinywIIH-24" style="edgeStyle=orthogonalEdgeStyle;rounded=0;orthogonalLoop=1;jettySize=auto;html=1;shape=flexArrow;fillColor=#f8cecc;gradientColor=#ea6b66;strokeColor=#b85450;" edge="1" parent="Yqo-nyDlKVrpuinywIIH-30" source="Yqo-nyDlKVrpuinywIIH-8">
          <mxGeometry relative="1" as="geometry">
            <mxPoint x="210" y="630" as="targetPoint" />
          </mxGeometry>
        </mxCell>
        <mxCell id="Yqo-nyDlKVrpuinywIIH-8" value="&lt;h3&gt;&lt;font color=&quot;#ffb570&quot;&gt;&lt;span style=&quot;font-size: 14.04px;&quot;&gt;&lt;br&gt;&lt;/span&gt;&lt;/font&gt;&lt;/h3&gt;&lt;h3&gt;&lt;font color=&quot;#ffb570&quot;&gt;&lt;span style=&quot;font-size: 14.04px;&quot;&gt;🧩 Custom CNN Layers&lt;/span&gt;&lt;/font&gt;&lt;/h3&gt;&lt;div style=&quot;text-align: left;&quot;&gt;&lt;font&gt;&lt;font style=&quot;&quot;&gt;&lt;div style=&quot;text-align: center;&quot;&gt;&lt;h3 style=&quot;text-align: left;&quot;&gt;&lt;br&gt;&lt;br&gt;&lt;br&gt;&lt;br&gt;&lt;br&gt;&lt;/h3&gt;&lt;div style=&quot;text-align: left;&quot;&gt;&lt;br&gt;&lt;/div&gt;&lt;/div&gt;&lt;/font&gt;&lt;/font&gt;&lt;/div&gt;" style="rounded=1;whiteSpace=wrap;html=1;strokeColor=#1A1A1A;fillColor=#1A1A1A;" vertex="1" parent="Yqo-nyDlKVrpuinywIIH-30">
          <mxGeometry x="320" y="470" width="260" height="150" as="geometry" />
        </mxCell>
        <mxCell id="Yqo-nyDlKVrpuinywIIH-9" value="&lt;div style=&quot;text-align: left; line-height: 150%;&quot;&gt;&lt;div&gt;&lt;font face=&quot;Verdana&quot;&gt;&lt;span style=&quot;font-size: 10px; line-height: 150%;&quot;&gt;&lt;font color=&quot;#ff3333&quot;&gt;✔️&amp;nbsp;&lt;/font&gt;&lt;font style=&quot;color: rgb(255, 255, 255);&quot;&gt;Glo&lt;/font&gt;&lt;font style=&quot;color: rgb(255, 255, 255);&quot;&gt;balAveragePooling2D&lt;/font&gt;&lt;/span&gt;&lt;/font&gt;&lt;/div&gt;&lt;div&gt;&lt;font face=&quot;Verdana&quot; color=&quot;#ffffff&quot;&gt;&lt;span style=&quot;font-size: 10px; line-height: 150%;&quot;&gt;✔️ Dropout layer&lt;/span&gt;&lt;/font&gt;&lt;/div&gt;&lt;div&gt;&lt;span style=&quot;font-size: 10px; font-family: Verdana; background-color: transparent; line-height: 150%;&quot;&gt;&lt;font style=&quot;color: rgb(255, 51, 51);&quot;&gt;✔️&amp;nbsp;&lt;i&gt;Dense(123, activation=&#39;relu&#39;)&lt;/i&gt;&lt;/font&gt;&lt;/span&gt;&lt;/div&gt;&lt;div&gt;&lt;font face=&quot;Verdana&quot;&gt;&lt;span style=&quot;font-size: 10px; line-height: 150%;&quot;&gt;&lt;font color=&quot;#ffffff&quot;&gt;✔️&amp;nbsp;&lt;/font&gt;&lt;i&gt;&lt;font style=&quot;color: rgb(255, 51, 51);&quot;&gt;Dense(6, activation=&#39;softmax&#39;)&lt;/font&gt;&lt;/i&gt;&lt;font color=&quot;#ffffff&quot;&gt; for&amp;nbsp;&lt;/font&gt;&lt;/span&gt;&lt;/font&gt;&lt;/div&gt;&lt;div&gt;&lt;font face=&quot;Verdana&quot;&gt;&lt;span style=&quot;font-size: 10px; line-height: 150%;&quot;&gt;&lt;font color=&quot;#ffffff&quot;&gt;&amp;nbsp; &amp;nbsp; &amp;nbsp;6 waste categories&lt;/font&gt;&lt;/span&gt;&lt;/font&gt;&lt;/div&gt;&lt;/div&gt;" style="text;html=1;align=center;verticalAlign=middle;whiteSpace=wrap;rounded=0;" vertex="1" parent="Yqo-nyDlKVrpuinywIIH-30">
          <mxGeometry x="270" y="520" width="370" height="90" as="geometry" />
        </mxCell>
        <mxCell id="Yqo-nyDlKVrpuinywIIH-12" value="&lt;h2 style=&quot;text-align: left;&quot;&gt;&lt;font style=&quot;color: rgb(255, 181, 112);&quot;&gt;&lt;span style=&quot;font-size: 14.04px;&quot;&gt;&lt;br&gt;&lt;/span&gt;&lt;/font&gt;&lt;font style=&quot;color: rgb(255, 181, 112);&quot;&gt;&lt;br&gt;&lt;/font&gt;&lt;/h2&gt;&lt;h2 style=&quot;text-align: left;&quot;&gt;&lt;font style=&quot;color: rgb(255, 181, 112);&quot;&gt;🔧 Fine-Tuning Phase&lt;/font&gt;&lt;font style=&quot;color: rgb(255, 181, 112);&quot;&gt;&lt;br&gt;&lt;/font&gt;&lt;/h2&gt;&lt;div style=&quot;text-align: left;&quot;&gt;&lt;font&gt;&lt;font style=&quot;&quot;&gt;&lt;div style=&quot;text-align: center;&quot;&gt;&lt;h3 style=&quot;text-align: left;&quot;&gt;&lt;font style=&quot;color: rgb(255, 181, 112);&quot;&gt;&lt;br&gt;&lt;br&gt;&lt;br&gt;&lt;br&gt;&lt;/font&gt;&lt;/h3&gt;&lt;div style=&quot;text-align: left;&quot;&gt;&lt;font style=&quot;color: rgb(255, 181, 112);&quot;&gt;&lt;b&gt;&lt;br&gt;&lt;/b&gt;&lt;/font&gt;&lt;/div&gt;&lt;div style=&quot;text-align: left;&quot;&gt;&lt;font style=&quot;color: rgb(255, 181, 112);&quot;&gt;&lt;b&gt;&lt;br&gt;&lt;/b&gt;&lt;/font&gt;&lt;/div&gt;&lt;div style=&quot;text-align: left;&quot;&gt;&lt;font style=&quot;color: rgb(255, 181, 112);&quot;&gt;&lt;b&gt;&lt;br&gt;&lt;/b&gt;&lt;/font&gt;&lt;/div&gt;&lt;div style=&quot;text-align: left;&quot;&gt;&lt;font style=&quot;color: rgb(255, 181, 112);&quot;&gt;&lt;b&gt;&lt;br&gt;&lt;/b&gt;&lt;/font&gt;&lt;/div&gt;&lt;div style=&quot;text-align: left;&quot;&gt;&lt;font style=&quot;color: rgb(255, 181, 112);&quot;&gt;&lt;b&gt;&lt;br&gt;&lt;/b&gt;&lt;/font&gt;&lt;/div&gt;&lt;div style=&quot;text-align: left;&quot;&gt;&lt;font style=&quot;color: rgb(255, 181, 112);&quot;&gt;&lt;b&gt;&lt;br&gt;&lt;/b&gt;&lt;/font&gt;&lt;/div&gt;&lt;div style=&quot;text-align: left;&quot;&gt;&lt;font style=&quot;color: rgb(255, 181, 112);&quot;&gt;&lt;b&gt;&lt;br&gt;&lt;/b&gt;&lt;/font&gt;&lt;/div&gt;&lt;div style=&quot;text-align: left;&quot;&gt;&lt;font style=&quot;color: rgb(255, 181, 112);&quot;&gt;&lt;b&gt;&lt;br&gt;&lt;/b&gt;&lt;/font&gt;&lt;/div&gt;&lt;div style=&quot;text-align: left;&quot;&gt;&lt;font style=&quot;color: rgb(255, 181, 112);&quot;&gt;&lt;b&gt;&lt;br&gt;&lt;/b&gt;&lt;/font&gt;&lt;/div&gt;&lt;div style=&quot;text-align: left;&quot;&gt;&lt;font style=&quot;color: rgb(255, 181, 112);&quot;&gt;&lt;b&gt;&lt;br&gt;&lt;/b&gt;&lt;/font&gt;&lt;/div&gt;&lt;div style=&quot;text-align: left;&quot;&gt;&lt;font style=&quot;color: rgb(255, 181, 112);&quot;&gt;&lt;b&gt;&lt;br&gt;&lt;/b&gt;&lt;/font&gt;&lt;/div&gt;&lt;div style=&quot;text-align: left;&quot;&gt;&lt;font style=&quot;color: rgb(255, 181, 112);&quot;&gt;&lt;b&gt;&lt;br&gt;&lt;/b&gt;&lt;/font&gt;&lt;/div&gt;&lt;div style=&quot;text-align: left;&quot;&gt;&lt;font style=&quot;color: rgb(255, 181, 112);&quot;&gt;&lt;b&gt;&lt;br&gt;&lt;/b&gt;&lt;/font&gt;&lt;/div&gt;&lt;div style=&quot;text-align: left;&quot;&gt;&lt;br&gt;&lt;/div&gt;&lt;/div&gt;&lt;/font&gt;&lt;/font&gt;&lt;/div&gt;" style="rounded=1;whiteSpace=wrap;html=1;strokeColor=#1A1A1A;fillColor=#1A1A1A;" vertex="1" parent="Yqo-nyDlKVrpuinywIIH-30">
          <mxGeometry x="580" y="640" width="260" height="300" as="geometry" />
        </mxCell>
        <mxCell id="Yqo-nyDlKVrpuinywIIH-13" value="&lt;div style=&quot;text-align: left;&quot;&gt;&lt;div&gt;&lt;font face=&quot;Verdana&quot; color=&quot;#ffffff&quot;&gt;&lt;span style=&quot;font-size: 10px;&quot;&gt;✔️ Loaded best checkpoint model&lt;/span&gt;&lt;/font&gt;&lt;/div&gt;&lt;div&gt;&lt;font face=&quot;Verdana&quot; color=&quot;#ffffff&quot;&gt;&lt;span style=&quot;font-size: 10px;&quot;&gt;&lt;br&gt;&lt;/span&gt;&lt;/font&gt;&lt;/div&gt;&lt;div&gt;&lt;font face=&quot;Verdana&quot; color=&quot;#ffffff&quot;&gt;&lt;span style=&quot;font-size: 10px; background-color: transparent;&quot;&gt;✔️&lt;/span&gt;&lt;span style=&quot;font-size: 10px;&quot;&gt;&amp;nbsp;Unfroze last 30 layers of EfficientNetV2B2&lt;/span&gt;&lt;/font&gt;&lt;/div&gt;&lt;div&gt;&lt;font face=&quot;Verdana&quot; color=&quot;#ffffff&quot;&gt;&lt;span style=&quot;font-size: 10px;&quot;&gt;&lt;br&gt;&lt;/span&gt;&lt;/font&gt;&lt;/div&gt;&lt;div&gt;&lt;font face=&quot;Verdana&quot; color=&quot;#ffffff&quot;&gt;&lt;span style=&quot;font-size: 10px; background-color: transparent;&quot;&gt;✔️&lt;/span&gt;&lt;span style=&quot;font-size: 10px;&quot;&gt;&amp;nbsp;Recompiled with lower learning rate = 1e-6&lt;/span&gt;&lt;/font&gt;&lt;/div&gt;&lt;div&gt;&lt;font face=&quot;Verdana&quot; color=&quot;#ffffff&quot;&gt;&lt;span style=&quot;font-size: 10px;&quot;&gt;&lt;br&gt;&lt;/span&gt;&lt;/font&gt;&lt;/div&gt;&lt;div&gt;&lt;font face=&quot;Verdana&quot; color=&quot;#ffffff&quot;&gt;&lt;span style=&quot;font-size: 10px; background-color: transparent;&quot;&gt;✔️&lt;/span&gt;&lt;span style=&quot;font-size: 10px;&quot;&gt;&amp;nbsp;Callbacks used:&lt;/span&gt;&lt;/font&gt;&lt;/div&gt;&lt;div&gt;&lt;font face=&quot;Verdana&quot; color=&quot;#ffffff&quot;&gt;&lt;span style=&quot;font-size: 10px;&quot;&gt;&lt;br&gt;&lt;/span&gt;&lt;/font&gt;&lt;/div&gt;&lt;div&gt;&lt;font style=&quot;color: rgb(102, 255, 102);&quot; face=&quot;Verdana&quot;&gt;&lt;span style=&quot;font-size: 10px;&quot;&gt;ModelCheckpoint – Save best weights&lt;/span&gt;&lt;/font&gt;&lt;/div&gt;&lt;div&gt;&lt;font style=&quot;color: rgb(102, 255, 102);&quot; face=&quot;Verdana&quot;&gt;&lt;span style=&quot;font-size: 10px;&quot;&gt;&lt;br&gt;&lt;/span&gt;&lt;/font&gt;&lt;/div&gt;&lt;div&gt;&lt;font style=&quot;color: rgb(102, 255, 102);&quot; face=&quot;Verdana&quot;&gt;&lt;span style=&quot;font-size: 10px;&quot;&gt;ReduceLROnPlateau – Dynamically adapt LR&lt;/span&gt;&lt;/font&gt;&lt;/div&gt;&lt;div&gt;&lt;font style=&quot;color: rgb(102, 255, 102);&quot; face=&quot;Verdana&quot;&gt;&lt;span style=&quot;font-size: 10px;&quot;&gt;&lt;br&gt;&lt;/span&gt;&lt;/font&gt;&lt;/div&gt;&lt;div&gt;&lt;font style=&quot;color: rgb(102, 255, 102);&quot; face=&quot;Verdana&quot;&gt;&lt;span style=&quot;font-size: 10px;&quot;&gt;EarlyStopping – Prevent overfitting&lt;/span&gt;&lt;/font&gt;&lt;/div&gt;&lt;/div&gt;" style="text;html=1;align=center;verticalAlign=middle;whiteSpace=wrap;rounded=0;" vertex="1" parent="Yqo-nyDlKVrpuinywIIH-30">
          <mxGeometry x="580" y="670" width="270" height="280" as="geometry" />
        </mxCell>
        <mxCell id="Yqo-nyDlKVrpuinywIIH-25" style="edgeStyle=orthogonalEdgeStyle;rounded=0;orthogonalLoop=1;jettySize=auto;html=1;entryX=0.5;entryY=0;entryDx=0;entryDy=0;shape=flexArrow;fillColor=#f8cecc;gradientColor=#ea6b66;strokeColor=#b85450;" edge="1" parent="Yqo-nyDlKVrpuinywIIH-30" source="Yqo-nyDlKVrpuinywIIH-18" target="Yqo-nyDlKVrpuinywIIH-22">
          <mxGeometry relative="1" as="geometry" />
        </mxCell>
        <mxCell id="Yqo-nyDlKVrpuinywIIH-18" value="&lt;h3&gt;&lt;font style=&quot;color: rgb(255, 181, 112);&quot; face=&quot;Verdana&quot;&gt;🎯 Initial Training Phase&lt;/font&gt;&lt;/h3&gt;&lt;div&gt;&lt;font style=&quot;color: rgb(255, 181, 112);&quot; face=&quot;Verdana&quot;&gt;&lt;br&gt;&lt;/font&gt;&lt;/div&gt;&lt;div&gt;&lt;font style=&quot;color: rgb(255, 181, 112);&quot; face=&quot;Verdana&quot;&gt;&lt;br&gt;&lt;/font&gt;&lt;/div&gt;&lt;div&gt;&lt;font style=&quot;color: rgb(255, 181, 112);&quot; face=&quot;Verdana&quot;&gt;&lt;br&gt;&lt;/font&gt;&lt;/div&gt;&lt;div&gt;&lt;font style=&quot;color: rgb(255, 181, 112);&quot; face=&quot;Verdana&quot;&gt;&lt;br&gt;&lt;/font&gt;&lt;/div&gt;&lt;div&gt;&lt;br&gt;&lt;/div&gt;" style="rounded=1;whiteSpace=wrap;html=1;strokeColor=#1A1A1A;fillColor=#1A1A1A;" vertex="1" parent="Yqo-nyDlKVrpuinywIIH-30">
          <mxGeometry x="60" y="640" width="330" height="170" as="geometry" />
        </mxCell>
        <mxCell id="Yqo-nyDlKVrpuinywIIH-21" value="&lt;div style=&quot;text-align: left; line-height: 110%;&quot;&gt;&lt;li style=&quot;line-height: 120%;&quot; data-end=&quot;821&quot; data-start=&quot;761&quot;&gt;&lt;p data-end=&quot;821&quot; data-start=&quot;763&quot;&gt;&lt;font style=&quot;color: rgb(255, 255, 255);&quot;&gt;✔️ Trained full model with frozen base (EfficientNetV2B2)&lt;/font&gt;&lt;/p&gt;&lt;p data-end=&quot;821&quot; data-start=&quot;763&quot;&gt;&lt;font style=&quot;color: rgb(255, 255, 255);&quot;&gt;✔️ Optimizer: Adam (learning rate = 0.001&lt;/font&gt;&lt;/p&gt;&lt;p data-end=&quot;821&quot; data-start=&quot;763&quot;&gt;&lt;font style=&quot;color: rgb(255, 255, 255);&quot;&gt;✔️ Loss Function: SparseCategoricalCrossentropy&lt;/font&gt;&lt;/p&gt;&lt;/li&gt;&lt;/div&gt;" style="text;html=1;align=center;verticalAlign=middle;whiteSpace=wrap;rounded=0;" vertex="1" parent="Yqo-nyDlKVrpuinywIIH-30">
          <mxGeometry x="70" y="710" width="310" height="70" as="geometry" />
        </mxCell>
        <mxCell id="Yqo-nyDlKVrpuinywIIH-22" value="&lt;h1&gt;&lt;span style=&quot;color: rgb(255, 181, 112); font-size: 17px; font-family: Verdana; background-color: transparent;&quot;&gt;🔧 Fine-Tuning Phase&lt;/span&gt;&lt;font style=&quot;color: rgb(255, 181, 112); font-size: 17px;&quot; face=&quot;Verdana&quot;&gt;&lt;br&gt;&lt;/font&gt;&lt;font style=&quot;color: rgb(255, 181, 112); font-size: 17px;&quot; face=&quot;Verdana&quot;&gt;&lt;br&gt;&lt;/font&gt;&lt;font style=&quot;color: rgb(255, 181, 112); font-size: 17px;&quot; face=&quot;Verdana&quot;&gt;&lt;br&gt;&lt;/font&gt;&lt;font style=&quot;color: rgb(255, 181, 112); font-size: 17px;&quot; face=&quot;Verdana&quot;&gt;&lt;br&gt;&lt;/font&gt;&lt;font style=&quot;color: rgb(255, 181, 112); font-size: 17px;&quot; face=&quot;Verdana&quot;&gt;&lt;br&gt;&lt;/font&gt;&lt;/h1&gt;&lt;div&gt;&lt;span style=&quot;font-size: 14.04px;&quot;&gt;&lt;font face=&quot;Verdana&quot;&gt;&lt;br&gt;&lt;/font&gt;&lt;/span&gt;&lt;/div&gt;&lt;div&gt;&lt;span style=&quot;font-size: 14.04px;&quot;&gt;&lt;font face=&quot;Verdana&quot;&gt;&lt;br&gt;&lt;/font&gt;&lt;/span&gt;&lt;/div&gt;" style="rounded=1;whiteSpace=wrap;html=1;strokeColor=#1A1A1A;fillColor=#1A1A1A;" vertex="1" parent="Yqo-nyDlKVrpuinywIIH-30">
          <mxGeometry x="60" y="852" width="330" height="248" as="geometry" />
        </mxCell>
        <mxCell id="Yqo-nyDlKVrpuinywIIH-23" value="&lt;div style=&quot;text-align: left; line-height: 110%;&quot;&gt;&lt;li style=&quot;line-height: 120%;&quot; data-end=&quot;821&quot; data-start=&quot;761&quot;&gt;&lt;p&gt;&lt;font style=&quot;line-height: 190%;&quot; face=&quot;Verdana&quot;&gt;&lt;font color=&quot;#ffffff&quot;&gt;✔️ Loaded best checkpoint model&lt;br&gt;&lt;/font&gt;&lt;font color=&quot;#ffffff&quot;&gt;✔️ Unfroze last 30 layers of EfficientNetV2B2&lt;br&gt;&lt;/font&gt;&lt;font color=&quot;#ffffff&quot;&gt;✔️ Recompiled with lower learning rate = 1e-6&lt;br&gt;&lt;/font&gt;&lt;font color=&quot;#ffffff&quot;&gt;✔️ Callbacks used:&lt;br&gt;&lt;/font&gt;&lt;font style=&quot;color: rgb(102, 255, 102);&quot;&gt;&lt;font&gt;ModelCheckpoint – Save best weights&lt;br&gt;&lt;/font&gt;&lt;font&gt;ReduceLROnPlateau – Dynamically adapt LR&lt;br&gt;&lt;/font&gt;&lt;font&gt;EarlyStopping – Prevent overfitting&lt;/font&gt;&lt;/font&gt;&lt;/font&gt;&lt;/p&gt;&lt;/li&gt;&lt;/div&gt;" style="text;html=1;align=center;verticalAlign=middle;whiteSpace=wrap;rounded=0;" vertex="1" parent="Yqo-nyDlKVrpuinywIIH-30">
          <mxGeometry x="70" y="920" width="310" height="160" as="geometry" />
        </mxCell>
        <mxCell id="Yqo-nyDlKVrpuinywIIH-26" style="edgeStyle=orthogonalEdgeStyle;rounded=0;orthogonalLoop=1;jettySize=auto;html=1;entryX=1;entryY=0.597;entryDx=0;entryDy=0;entryPerimeter=0;shape=flexArrow;fillColor=#f8cecc;gradientColor=#ea6b66;strokeColor=#b85450;" edge="1" parent="Yqo-nyDlKVrpuinywIIH-30" source="Yqo-nyDlKVrpuinywIIH-12" target="Yqo-nyDlKVrpuinywIIH-22">
          <mxGeometry relative="1" as="geometry">
            <Array as="points">
              <mxPoint x="710" y="1000" />
            </Array>
          </mxGeometry>
        </mxCell>
      </root>
    </mxGraphModel>
  </diagram>
</mxfile>
